<?xml version="1.0" encoding="UTF-8" standalone="no"?><svg xmlns="http://www.w3.org/2000/svg" xmlns:xlink="http://www.w3.org/1999/xlink" fill="#000000" height="501.3" preserveAspectRatio="xMidYMid meet" version="1" viewBox="-0.6 -1.2 438.3 501.3" width="438.3" zoomAndPan="magnify"><g id="change1_1"><path d="M245.3,1.1c-13,12.4-27.5,20.3-40.3,30.5c-14.4,11.5-25.6,25.6-35.1,41c-12.4,20.1-17.9,43.1-23.3,65.7 c-6,25.2-9.1,51-7.6,77c1,16.5,2.1,33.4,8,48.8c6.4,16.5,17,31.1,26.7,46c16.9,26,41.5,41.4,68.4,54.4c24.3,11.8,49.7,19.6,76,25.1 c29.2,6.1,58.3,5,87.3-0.9c7.4-1.5,14.7-3.3,22-5c3.7-0.8,7.1,0.3,8.9,3.6c1.4,2.6,1,5.4-1.6,7.9c-18.7,18.4-36.1,38.2-57.2,53.9 c-34.1,25.5-71.6,43.1-114.5,48c-26.3,3-52.3,2.3-78.3-1.9c-10.8-1.7-20.3-7.8-30.6-11.5c-30.7-11.2-55.5-31-80-51.9 C41,403.6,20.9,367.7,8.6,326.7c-8.4-28-9.2-56.8-8.3-85.7c1.6-51.3,20.9-96.6,49.5-137.9c23.9-34.6,55-62.3,93.2-80.8 C168.5,10.1,195.6,2.5,224.3,1C231,0.7,237.6-1.2,245.3,1.1z" fill="#fada37"/></g></svg>