<?xml version="1.0" encoding="UTF-8" standalone="no"?><svg xmlns="http://www.w3.org/2000/svg" xmlns:xlink="http://www.w3.org/1999/xlink" baseProfile="tiny" fill="#000000" height="101" overflow="visible" preserveAspectRatio="xMidYMid meet" version="1" viewBox="75.0 199.5 350.0 101.0" width="350" zoomAndPan="magnify"><g><g id="change1_1"><path d="M425,250c0,27.86-22.67,50.5-50.53,50.5H125.49C97.63,300.5,75,277.86,75,250 c0-27.86,22.63-50.5,50.49-50.5h248.97C402.33,199.5,425,222.14,425,250z" fill="#fada37"/></g><g fill="#000000" id="change2_1"><path d="M142.59,268.71h-11.44c-1.65,0-2.83-0.37-3.54-1.11c-0.71-0.74-1.06-1.92-1.06-3.54v-28.13 c0-1.65,0.36-2.84,1.08-3.56c0.72-0.72,1.89-1.08,3.51-1.08h12.12c1.79,0,3.34,0.11,4.65,0.33c1.31,0.22,2.48,0.65,3.52,1.28 c0.88,0.53,1.67,1.2,2.35,2c0.68,0.81,1.2,1.7,1.56,2.68c0.36,0.98,0.54,2.01,0.54,3.1c0,3.74-1.87,6.48-5.62,8.22 c4.92,1.57,7.38,4.61,7.38,9.14c0,2.09-0.54,3.98-1.61,5.65c-1.07,1.68-2.52,2.91-4.34,3.71c-1.14,0.48-2.45,0.81-3.93,1.01 C146.29,268.61,144.56,268.71,142.59,268.71z M134.14,236.98v9.67h6.94c1.89,0,3.35-0.18,4.38-0.54c1.03-0.36,1.82-1.04,2.36-2.04 c0.43-0.71,0.64-1.51,0.64-2.4c0-1.89-0.67-3.14-2.02-3.76c-1.34-0.62-3.39-0.93-6.15-0.93H134.14z M142.03,252.09h-7.89v10.92 h8.14c5.12,0,7.68-1.85,7.68-5.54c0-1.89-0.66-3.26-1.99-4.11C146.65,252.52,144.67,252.09,142.03,252.09z"/><path d="M162.27,253.24v-18c0-1.53,0.34-2.68,1.03-3.45c0.69-0.77,1.6-1.15,2.72-1.15c1.17,0,2.11,0.38,2.8,1.15 c0.69,0.77,1.03,1.91,1.03,3.45v18.4c0,2.09,0.23,3.84,0.7,5.25c0.47,1.4,1.3,2.49,2.49,3.27c1.19,0.77,2.86,1.16,5,1.16 c2.96,0,5.05-0.79,6.28-2.36c1.23-1.57,1.84-3.96,1.84-7.16v-18.56c0-1.55,0.34-2.7,1.02-3.46c0.68-0.76,1.59-1.14,2.73-1.14 c1.14,0,2.06,0.38,2.77,1.14c0.71,0.76,1.06,1.91,1.06,3.46v18c0,2.93-0.29,5.37-0.86,7.33c-0.57,1.96-1.65,3.68-3.23,5.16 c-1.36,1.26-2.94,2.18-4.75,2.76s-3.91,0.87-6.33,0.87c-2.88,0-5.35-0.31-7.43-0.93c-2.08-0.62-3.77-1.58-5.08-2.88 c-1.31-1.3-2.27-2.97-2.88-5C162.58,258.5,162.27,256.07,162.27,253.24z"/><path d="M210.28,264.73v-11.87l-9.14-14.17c-0.8-1.28-1.37-2.27-1.7-2.99c-0.33-0.71-0.5-1.34-0.5-1.86 c0-0.87,0.34-1.62,1.01-2.25c0.67-0.63,1.5-0.94,2.49-0.94c1.04,0,1.83,0.29,2.36,0.88s1.34,1.76,2.41,3.51l6.99,11.36l7.07-11.36 c0.43-0.7,0.78-1.28,1.07-1.76c0.29-0.48,0.61-0.92,0.96-1.34c0.35-0.42,0.74-0.74,1.16-0.96c0.43-0.22,0.94-0.33,1.56-0.33 c0.95,0,1.75,0.31,2.39,0.93c0.64,0.62,0.96,1.34,0.96,2.16c0,0.66-0.16,1.33-0.48,1.99s-0.88,1.58-1.66,2.76l-9.37,14.37v11.87 c0,1.55-0.36,2.71-1.07,3.47s-1.63,1.15-2.73,1.15c-1.12,0-2.03-0.38-2.73-1.14C210.63,267.46,210.28,266.29,210.28,264.73z"/><path d="M257.56,235.2l14.57,22.05v-22.26c0-1.45,0.31-2.53,0.93-3.25c0.62-0.72,1.46-1.08,2.51-1.08 c1.09,0,1.95,0.36,2.58,1.08c0.63,0.72,0.94,1.81,0.94,3.25v29.43c0,3.28-1.36,4.93-4.08,4.93c-0.68,0-1.29-0.1-1.84-0.29 c-0.54-0.2-1.06-0.51-1.53-0.93c-0.48-0.43-0.92-0.92-1.33-1.49c-0.41-0.57-0.82-1.15-1.23-1.75l-14.22-21.8v21.93 c0,1.43-0.33,2.51-1,3.24c-0.66,0.73-1.51,1.1-2.55,1.1c-1.07,0-1.93-0.37-2.58-1.11c-0.65-0.74-0.97-1.82-0.97-3.23v-28.87 c0-1.23,0.14-2.19,0.41-2.88c0.32-0.77,0.86-1.39,1.61-1.88c0.75-0.48,1.56-0.73,2.42-0.73c0.68,0,1.26,0.11,1.75,0.33 c0.48,0.22,0.91,0.52,1.28,0.89c0.37,0.37,0.74,0.86,1.12,1.45C256.75,233.93,257.15,234.55,257.56,235.2z"/><path d="M303.86,230.65c3.88,0,7.21,0.79,9.99,2.36c2.78,1.57,4.89,3.81,6.32,6.71c1.43,2.9,2.14,6.31,2.14,10.22 c0,2.89-0.39,5.52-1.17,7.89c-0.78,2.37-1.96,4.42-3.52,6.15c-1.57,1.74-3.49,3.06-5.77,3.98c-2.28,0.92-4.89,1.38-7.84,1.38 c-2.93,0-5.55-0.47-7.86-1.42c-2.31-0.94-4.25-2.28-5.79-3.99c-1.55-1.72-2.72-3.79-3.51-6.2c-0.79-2.42-1.19-5.03-1.19-7.84 c0-2.88,0.41-5.51,1.24-7.91c0.83-2.4,2.02-4.44,3.59-6.13c1.57-1.68,3.47-2.97,5.72-3.87C298.45,231.1,301,230.65,303.86,230.65z M314.63,249.9c0-2.74-0.44-5.11-1.33-7.12c-0.88-2.01-2.15-3.53-3.79-4.56c-1.64-1.03-3.53-1.54-5.65-1.54 c-1.51,0-2.91,0.29-4.2,0.86c-1.28,0.57-2.39,1.4-3.32,2.49c-0.93,1.09-1.66,2.48-2.2,4.17c-0.54,1.69-0.8,3.6-0.8,5.7 c0,2.13,0.27,4.05,0.8,5.77c0.54,1.72,1.29,3.14,2.27,4.28c0.98,1.13,2.1,1.98,3.37,2.54s2.66,0.84,4.17,0.84 c1.94,0,3.72-0.48,5.35-1.45c1.63-0.97,2.92-2.47,3.88-4.49C314.15,255.35,314.63,252.86,314.63,249.9z"/><path d="M355.93,262.81l-6.05-22.44l-6.13,22.44c-0.48,1.7-0.86,2.92-1.14,3.66c-0.28,0.74-0.77,1.4-1.47,1.99 c-0.7,0.59-1.63,0.88-2.78,0.88c-0.94,0-1.71-0.17-2.31-0.52s-1.09-0.84-1.47-1.48s-0.68-1.4-0.92-2.27 c-0.24-0.88-0.45-1.69-0.64-2.44l-6.23-25.19c-0.37-1.46-0.56-2.58-0.56-3.34c0-0.97,0.34-1.79,1.02-2.45s1.52-1,2.53-1 c1.38,0,2.31,0.44,2.78,1.33c0.48,0.89,0.89,2.17,1.25,3.85l4.9,21.85l5.49-20.45c0.41-1.57,0.77-2.76,1.1-3.57 c0.32-0.82,0.85-1.52,1.58-2.12c0.73-0.6,1.73-0.89,2.99-0.89c1.28,0,2.27,0.31,2.97,0.93c0.71,0.62,1.2,1.3,1.47,2.03 c0.27,0.73,0.64,1.94,1.1,3.62l5.54,20.45l4.9-21.85c0.24-1.14,0.46-2.03,0.68-2.68c0.21-0.65,0.58-1.23,1.1-1.74 c0.52-0.51,1.27-0.77,2.26-0.77c0.99,0,1.83,0.33,2.51,0.98c0.69,0.66,1.03,1.48,1.03,2.46c0,0.7-0.19,1.81-0.56,3.34l-6.23,25.19 c-0.43,1.7-0.78,2.95-1.06,3.74s-0.76,1.48-1.43,2.08c-0.67,0.6-1.62,0.89-2.85,0.89c-1.16,0-2.08-0.29-2.78-0.87 c-0.7-0.58-1.18-1.23-1.45-1.95C356.81,265.8,356.42,264.57,355.93,262.81z"/></g></g></svg>